<?xml version="1.0" standalone="no"?>
<!DOCTYPE svg PUBLIC "-//W3C//DTD SVG 20010904//EN"
 "http://www.w3.org/TR/2001/REC-SVG-20010904/DTD/svg10.dtd">
<svg version="1.0" xmlns="http://www.w3.org/2000/svg"
 width="330.000000pt" height="330.000000pt" viewBox="0 0 330.000000 330.000000"
 preserveAspectRatio="xMidYMid meet">
<metadata>
Created by potrace 1.14, written by Peter Selinger 2001-2017
</metadata>
<g transform="translate(0.000000,330.000000) scale(0.100000,-0.100000)"
fill="#000000" stroke="none">
<path d="M400 2550 l0 -350 350 0 350 0 0 350 0 350 -350 0 -350 0 0 -350z
m600 0 l0 -250 -250 0 -250 0 0 250 0 250 250 0 250 0 0 -250z"/>
<path d="M600 2550 l0 -150 150 0 150 0 0 150 0 150 -150 0 -150 0 0 -150z"/>
<path d="M1200 2750 l0 -150 50 0 50 0 0 -50 0 -50 100 0 100 0 0 -50 0 -50
-50 0 -50 0 0 -100 0 -100 -50 0 -50 0 0 100 0 100 -50 0 -50 0 0 -200 0 -200
-50 0 -50 0 0 50 0 50 -50 0 -50 0 0 -50 0 -50 -50 0 -50 0 0 50 0 50 -150 0
-150 0 0 -50 0 -50 -100 0 -100 0 0 -50 0 -50 50 0 50 0 0 -100 0 -100 150 0
150 0 0 -50 0 -50 -100 0 -100 0 0 -50 0 -50 50 0 50 0 0 -100 0 -100 -50 0
-50 0 0 -50 0 -50 150 0 150 0 0 100 0 100 100 0 100 0 0 -50 0 -50 -50 0 -50
0 0 -50 0 -50 100 0 100 0 0 -50 0 -50 50 0 50 0 0 -50 0 -50 100 0 100 0 0
-50 0 -50 -50 0 -50 0 0 -50 0 -50 -50 0 -50 0 0 50 0 50 -50 0 -50 0 0 -150
0 -150 100 0 100 0 0 100 0 100 50 0 50 0 0 -100 0 -100 100 0 100 0 0 -50 0
-50 50 0 50 0 0 -50 0 -50 50 0 50 0 0 50 0 50 50 0 50 0 0 -50 0 -50 50 0 50
0 0 50 0 50 50 0 50 0 0 50 0 50 100 0 100 0 0 50 0 50 100 0 100 0 0 50 0 50
50 0 50 0 0 50 0 50 100 0 100 0 0 100 0 100 -150 0 -150 0 0 50 0 50 50 0 50
0 0 50 0 50 -50 0 -50 0 0 -50 0 -50 -50 0 -50 0 0 50 0 50 -100 0 -100 0 0
50 0 50 50 0 50 0 0 100 0 100 100 0 100 0 0 -50 0 -50 -50 0 -50 0 0 -50 0
-50 50 0 50 0 0 50 0 50 50 0 50 0 0 -50 0 -50 50 0 50 0 0 -50 0 -50 50 0 50
0 0 100 0 100 -100 0 -100 0 0 100 0 100 50 0 50 0 0 -50 0 -50 50 0 50 0 0
150 0 150 -100 0 -100 0 0 50 0 50 100 0 100 0 0 50 0 50 -150 0 -150 0 0 -50
0 -50 -50 0 -50 0 0 -50 0 -50 -50 0 -50 0 0 -50 0 -50 -50 0 -50 0 0 -50 0
-50 50 0 50 0 0 -50 0 -50 -100 0 -100 0 0 50 0 50 -50 0 -50 0 0 -50 0 -50
-50 0 -50 0 0 100 0 100 100 0 100 0 0 50 0 50 50 0 50 0 0 50 0 50 50 0 50 0
0 50 0 50 -150 0 -150 0 0 300 0 300 -50 0 -50 0 0 -50 0 -50 -50 0 -50 0 0
50 0 50 -50 0 -50 0 0 50 0 50 -100 0 -100 0 0 50 0 50 -50 0 -50 0 0 -50 0
-50 -50 0 -50 0 0 -50 0 -50 -50 0 -50 0 0 100 0 100 -50 0 -50 0 0 -150z
m400 -100 l0 -50 50 0 50 0 0 50 0 50 50 0 50 0 0 -50 0 -50 50 0 50 0 0 -50
0 -50 50 0 50 0 0 -50 0 -50 -50 0 -50 0 0 -50 0 -50 50 0 50 0 0 -100 0 -100
-50 0 -50 0 0 100 0 100 -50 0 -50 0 0 -100 0 -100 -100 0 -100 0 0 50 0 50
-50 0 -50 0 0 50 0 50 50 0 50 0 0 -50 0 -50 50 0 50 0 0 50 0 50 50 0 50 0 0
50 0 50 -50 0 -50 0 0 50 0 50 -50 0 -50 0 0 50 0 50 -50 0 -50 0 0 50 0 50
50 0 50 0 0 -50z m-700 -700 l0 -50 50 0 50 0 0 50 0 50 50 0 50 0 0 -50 0
-50 -50 0 -50 0 0 -50 0 -50 100 0 100 0 0 -50 0 -50 50 0 50 0 0 50 0 50 50
0 50 0 0 50 0 50 -50 0 -50 0 0 50 0 50 250 0 250 0 0 -50 0 -50 -100 0 -100
0 0 -50 0 -50 -100 0 -100 0 0 -100 0 -100 -50 0 -50 0 0 -50 0 -50 -50 0 -50
0 0 -50 0 -50 50 0 50 0 0 -50 0 -50 100 0 100 0 0 50 0 50 -50 0 -50 0 0 50
0 50 50 0 50 0 0 -50 0 -50 100 0 100 0 0 50 0 50 50 0 50 0 0 50 0 50 50 0
50 0 0 -50 0 -50 100 0 100 0 0 50 0 50 50 0 50 0 0 -100 0 -100 -100 0 -100
0 0 -150 0 -150 -50 0 -50 0 0 50 0 50 -50 0 -50 0 0 -50 0 -50 -50 0 -50 0 0
-50 0 -50 50 0 50 0 0 -50 0 -50 -50 0 -50 0 0 -100 0 -100 50 0 50 0 0 50 0
50 200 0 200 0 0 -50 0 -50 -50 0 -50 0 0 -100 0 -100 -50 0 -50 0 0 100 0
100 -50 0 -50 0 0 -100 0 -100 -50 0 -50 0 0 50 0 50 -50 0 -50 0 0 50 0 50
-50 0 -50 0 0 150 0 150 -50 0 -50 0 0 50 0 50 -50 0 -50 0 0 50 0 50 -100 0
-100 0 0 100 0 100 -50 0 -50 0 0 50 0 50 -150 0 -150 0 0 50 0 50 50 0 50 0
0 50 0 50 50 0 50 0 0 50 0 50 -100 0 -100 0 0 50 0 50 -100 0 -100 0 0 50 0
50 150 0 150 0 0 -50z m1300 0 l0 -50 -100 0 -100 0 0 -50 0 -50 -50 0 -50 0
0 -50 0 -50 -100 0 -100 0 0 50 0 50 100 0 100 0 0 50 0 50 50 0 50 0 0 50 0
50 100 0 100 0 0 -50z m500 -150 l0 -100 -100 0 -100 0 0 100 0 100 100 0 100
0 0 -100z m-1100 -150 l0 -50 -50 0 -50 0 0 50 0 50 50 0 50 0 0 -50z m800
-600 l0 -150 -150 0 -150 0 0 150 0 150 150 0 150 0 0 -150z m200 0 l0 -50 50
0 50 0 0 -50 0 -50 -100 0 -100 0 0 100 0 100 50 0 50 0 0 -50z m-200 -300 l0
-50 -50 0 -50 0 0 50 0 50 50 0 50 0 0 -50z"/>
<path d="M1800 2450 l0 -50 50 0 50 0 0 50 0 50 -50 0 -50 0 0 -50z"/>
<path d="M1000 1650 l0 -50 100 0 100 0 0 50 0 50 -100 0 -100 0 0 -50z"/>
<path d="M1800 1450 l0 -50 50 0 50 0 0 50 0 50 -50 0 -50 0 0 -50z"/>
<path d="M1600 1250 l0 -50 50 0 50 0 0 50 0 50 -50 0 -50 0 0 -50z"/>
<path d="M2200 1050 l0 -50 50 0 50 0 0 50 0 50 -50 0 -50 0 0 -50z"/>
<path d="M1900 2850 l0 -50 100 0 100 0 0 50 0 50 -100 0 -100 0 0 -50z"/>
<path d="M2200 2550 l0 -350 350 0 350 0 0 350 0 350 -350 0 -350 0 0 -350z
m600 0 l0 -250 -250 0 -250 0 0 250 0 250 250 0 250 0 0 -250z"/>
<path d="M2400 2550 l0 -150 150 0 150 0 0 150 0 150 -150 0 -150 0 0 -150z"/>
<path d="M400 1400 l0 -200 50 0 50 0 0 200 0 200 -50 0 -50 0 0 -200z"/>
<path d="M400 750 l0 -350 350 0 350 0 0 350 0 350 -350 0 -350 0 0 -350z
m600 0 l0 -250 -250 0 -250 0 0 250 0 250 250 0 250 0 0 -250z"/>
<path d="M600 750 l0 -150 150 0 150 0 0 150 0 150 -150 0 -150 0 0 -150z"/>
<path d="M2800 650 l0 -150 -100 0 -100 0 0 -50 0 -50 150 0 150 0 0 200 0
200 -50 0 -50 0 0 -150z"/>
<path d="M1500 450 l0 -50 50 0 50 0 0 50 0 50 -50 0 -50 0 0 -50z"/>
<path d="M2300 450 l0 -50 50 0 50 0 0 50 0 50 -50 0 -50 0 0 -50z"/>
</g>
</svg>
